<svg width="399" height="800" viewBox="0 0 399 800" fill="none" xmlns="http://www.w3.org/2000/svg">
<g clip-path="url(#clip0_872_1539)">
<path d="M398.672 190H394.278V69.654C394.278 60.5068 392.477 51.4491 388.976 42.9982C385.476 34.5472 380.345 26.8685 373.877 20.4005C367.409 13.9325 359.73 8.80188 351.279 5.30154C342.828 1.8012 333.77 -0.000262623 324.623 2.87166e-08L69.653 2.87166e-08C51.1807 0.000265183 33.4649 7.33822 20.4026 20.3998C7.3403 33.4613 0.00132601 51.1767 0 69.649L0 729.892C-1.90374e-09 748.365 7.33839 766.082 20.4008 779.144C33.4633 792.207 51.1798 799.546 69.653 799.546H324.627C343.1 799.546 360.817 792.207 373.88 779.145C386.942 766.082 394.281 748.365 394.281 729.892L394.281 275.666H398.675L398.672 190Z" fill="#090814"/>
<path d="M379.575 69.144L379.575 728.408C379.587 742.192 374.123 755.415 364.385 765.17C354.648 774.925 341.434 780.413 327.65 780.425H71.3571C57.571 780.435 44.3456 774.968 34.5902 765.227C24.8348 755.486 19.3485 742.268 19.3381 728.482L19.3381 69.144C19.3333 62.3176 20.673 55.5572 23.2809 49.2486C25.8887 42.9399 29.7136 37.2068 34.5372 32.3764C39.3607 27.5459 45.0884 23.7129 51.3933 21.0961C57.6982 18.4792 64.4568 17.1299 71.2831 17.125H102.438C100.907 20.8773 100.323 24.9485 100.737 28.9798C101.15 33.0111 102.549 36.8788 104.81 40.2421C107.071 43.6054 110.124 46.3611 113.701 48.2662C117.277 50.1714 121.268 51.1676 125.32 51.167L271.395 51.167C275.448 51.1677 279.438 50.1717 283.015 48.2666C286.592 46.3615 289.645 43.6059 291.906 40.2426C294.167 36.8792 295.566 33.0114 295.979 28.98C296.393 24.9486 295.809 20.8774 294.278 17.125H327.557C334.382 17.1188 341.142 18.457 347.45 21.0632C353.757 23.6693 359.49 27.4923 364.321 32.314C369.151 37.1357 372.984 42.8616 375.602 49.1648C378.22 55.4679 379.57 62.225 379.576 69.05V69.143L379.575 69.144Z" fill="white"/>
<path d="M347.338 99.7729C347.338 96.8061 346.459 93.9059 344.81 91.439C343.162 88.9721 340.819 87.0494 338.078 85.914C335.338 84.7786 332.321 84.4816 329.412 85.0604C326.502 85.6393 323.829 87.068 321.731 89.1659C320.338 90.5589 319.233 92.2125 318.479 94.0325C317.726 95.8524 317.338 97.803 317.338 99.7729C317.338 101.743 317.726 103.693 318.479 105.513C319.233 107.333 320.338 108.987 321.731 110.38C323.124 111.773 324.778 112.878 326.598 113.632C328.418 114.386 330.368 114.774 332.338 114.774C334.308 114.774 336.259 114.386 338.079 113.632C339.899 112.878 341.552 111.773 342.945 110.38C344.342 108.99 345.45 107.337 346.204 105.517C346.958 103.696 347.344 101.744 347.338 99.7729ZM348.338 99.7729C348.338 102.937 347.4 106.031 345.642 108.662C343.884 111.293 341.385 113.344 338.461 114.555C335.537 115.766 332.32 116.083 329.217 115.466C326.113 114.848 323.262 113.324 321.024 111.087C318.787 108.849 317.263 105.998 316.646 102.894C316.028 99.7907 316.345 96.5736 317.556 93.65C318.767 90.7264 320.818 88.2275 323.449 86.4694C326.08 84.7113 329.174 83.7729 332.338 83.7729C336.582 83.7729 340.651 85.4587 343.652 88.4592C346.652 91.4598 348.338 95.5295 348.338 99.7729Z" fill="#090814"/>
<path d="M341.75 103.773L333.926 97.7729V103.773L322.926 95.7729" stroke="black" stroke-width="2" stroke-linecap="round" stroke-linejoin="round"/>
<path d="M294.338 109.773C299.861 109.773 304.338 105.296 304.338 99.7729C304.338 94.2501 299.861 89.7729 294.338 89.7729H266.338C260.815 89.7729 256.338 94.2501 256.338 99.7729C256.338 105.296 260.815 109.773 266.338 109.773H294.338Z" fill="#D32C57"/>
<path d="M163.338 711.773C163.338 729.446 177.665 743.773 195.338 743.773C213.011 743.773 227.338 729.446 227.338 711.773C227.338 694.1 213.011 679.773 195.338 679.773C177.665 679.773 163.338 694.1 163.338 711.773Z" fill="#D32C57"/>
<path d="M167.338 711.773C167.338 727.237 179.874 739.773 195.338 739.773C210.802 739.773 223.338 727.237 223.338 711.773C223.338 696.309 210.802 683.773 195.338 683.773C179.874 683.773 167.338 696.309 167.338 711.773Z" fill="white"/>
<path d="M171.338 711.773C171.338 725.028 182.083 735.773 195.338 735.773C208.593 735.773 219.338 725.028 219.338 711.773C219.338 698.518 208.593 687.773 195.338 687.773C182.083 687.773 171.338 698.518 171.338 711.773Z" fill="#D32C57"/>
<path d="M43.3381 99.7729C43.3381 108.61 50.5016 115.773 59.3381 115.773C68.1747 115.773 75.3381 108.61 75.3381 99.7729C75.3381 90.9364 68.1747 83.7729 59.3381 83.7729C50.5016 83.7729 43.3381 90.9364 43.3381 99.7729Z" fill="#E6E6E6"/>
<path d="M316.338 711.773C316.338 720.61 323.502 727.773 332.338 727.773C341.175 727.773 348.338 720.61 348.338 711.773C348.338 702.936 341.175 695.773 332.338 695.773C323.502 695.773 316.338 702.936 316.338 711.773Z" fill="#E6E6E6"/>
<path d="M333.338 719.773C335.098 719.528 336.729 718.712 337.979 717.45C339.229 716.187 340.029 714.549 340.257 712.787C340.484 711.025 340.126 709.237 339.237 707.698C338.348 706.16 336.978 704.956 335.338 704.273M339.338 703.773H335.338V707.773" stroke="black" stroke-linecap="round" stroke-linejoin="round"/>
<path d="M331.338 703.773C329.578 704.018 327.948 704.834 326.698 706.096C325.447 707.359 324.647 708.997 324.42 710.759C324.192 712.521 324.551 714.309 325.439 715.848C326.328 717.386 327.698 718.59 329.338 719.273M325.338 719.773H329.338V715.773" stroke="black" stroke-linecap="round" stroke-linejoin="round"/>
<path d="M75.3381 723.773V699.773C75.3381 697.564 73.5473 695.773 71.3381 695.773H47.3381C45.129 695.773 43.3381 697.564 43.3381 699.773V723.773C43.3381 725.982 45.129 727.773 47.3381 727.773H71.3381C73.5473 727.773 75.3381 725.982 75.3381 723.773Z" fill="#E6E6E6"/>
<path d="M243.338 99.7729C243.338 96.8061 242.459 93.9059 240.81 91.439C239.162 88.9721 236.819 87.0494 234.078 85.914C231.338 84.7786 228.321 84.4816 225.412 85.0604C222.502 85.6393 219.829 87.068 217.731 89.1659C216.338 90.5589 215.233 92.2125 214.479 94.0325C213.726 95.8524 213.338 97.803 213.338 99.7729C213.338 101.743 213.726 103.693 214.479 105.513C215.233 107.333 216.338 108.987 217.731 110.38C219.124 111.773 220.778 112.878 222.598 113.632C224.418 114.386 226.368 114.774 228.338 114.774C230.308 114.774 232.259 114.386 234.079 113.632C235.899 112.878 237.552 111.773 238.945 110.38C240.342 108.99 241.45 107.337 242.204 105.517C242.958 103.696 243.344 101.744 243.338 99.7729ZM244.338 99.7729C244.338 102.937 243.4 106.031 241.642 108.662C239.884 111.293 237.385 113.344 234.461 114.555C231.537 115.766 228.32 116.083 225.217 115.466C222.113 114.848 219.262 113.324 217.024 111.087C214.787 108.849 213.263 105.998 212.646 102.894C212.028 99.7907 212.345 96.5736 213.556 93.65C214.767 90.7264 216.818 88.2275 219.449 86.4694C222.08 84.7113 225.174 83.7729 228.338 83.7729C232.582 83.7729 236.651 85.4587 239.652 88.4592C242.652 91.4598 244.338 95.5295 244.338 99.7729Z" fill="#090814"/>
<path d="M227.83 92.373C227.83 92.2404 227.883 92.1133 227.976 92.0195C228.07 91.9257 228.197 91.873 228.33 91.873H228.338C228.47 91.873 228.598 91.9257 228.691 92.0195C228.785 92.1133 228.838 92.2404 228.838 92.373C228.838 92.5057 228.785 92.6328 228.691 92.7266C228.598 92.8204 228.47 92.873 228.338 92.873H228.33C228.197 92.873 228.07 92.8204 227.976 92.7266C227.883 92.6328 227.83 92.5057 227.83 92.373Z" fill="black"/>
<path d="M221.416 96.073C221.416 95.9404 221.469 95.8132 221.563 95.7194C221.656 95.6257 221.783 95.573 221.916 95.573H221.924C222.057 95.573 222.184 95.6257 222.278 95.7194C222.371 95.8132 222.424 95.9404 222.424 96.073C222.424 96.2056 222.371 96.3328 222.278 96.4266C222.184 96.5203 222.057 96.573 221.924 96.573H221.916C221.783 96.573 221.656 96.5203 221.563 96.4266C221.469 96.3328 221.416 96.2056 221.416 96.073Z" fill="black"/>
<path d="M224.129 93.36C224.129 93.2274 224.182 93.1002 224.275 93.0064C224.369 92.9127 224.496 92.86 224.629 92.86H224.637C224.77 92.86 224.897 92.9127 224.991 93.0064C225.084 93.1002 225.137 93.2274 225.137 93.36C225.137 93.4926 225.084 93.6198 224.991 93.7135C224.897 93.8073 224.77 93.86 224.637 93.86H224.629C224.496 93.86 224.369 93.8073 224.275 93.7135C224.182 93.6198 224.129 93.4926 224.129 93.36Z" fill="black"/>
<path d="M231.53 93.36C231.53 93.2274 231.583 93.1002 231.677 93.0064C231.77 92.9127 231.897 92.86 232.03 92.86H232.038C232.171 92.86 232.298 92.9127 232.392 93.0064C232.485 93.1002 232.538 93.2274 232.538 93.36C232.538 93.4926 232.485 93.6198 232.392 93.7135C232.298 93.8073 232.171 93.86 232.038 93.86H232.03C231.897 93.86 231.77 93.8073 231.677 93.7135C231.583 93.6198 231.53 93.4926 231.53 93.36Z" fill="black"/>
<path d="M221.252 103.203C221.254 103.079 221.3 102.96 221.382 102.867C221.463 102.774 221.576 102.714 221.698 102.696C222.035 102.653 222.237 102.919 222.517 103.288C222.768 103.618 223.117 104.116 223.517 104.728C223.585 104.831 223.613 104.956 223.594 105.079C223.576 105.201 223.513 105.312 223.417 105.391C223.321 105.469 223.199 105.509 223.076 105.503C222.952 105.497 222.835 105.445 222.747 105.358C222.369 104.976 222.024 104.564 221.714 104.125C221.363 103.623 221.252 103.386 221.252 103.203ZM224.524 106.389C224.524 106.304 224.546 106.22 224.587 106.145C224.629 106.071 224.689 106.008 224.761 105.964C224.834 105.919 224.917 105.893 225.002 105.889C225.087 105.886 225.172 105.904 225.248 105.942C226.3 106.469 227.469 106.718 228.645 106.666C229.82 106.613 230.962 106.262 231.963 105.643C232.964 105.025 233.791 104.161 234.364 103.134C234.937 102.106 235.238 100.949 235.238 99.7729C235.238 99.6403 235.291 99.5132 235.384 99.4194C235.478 99.3256 235.605 99.2729 235.738 99.2729C235.871 99.2729 235.998 99.3256 236.092 99.4194C236.185 99.5132 236.238 99.6403 236.238 99.7729C236.238 101.12 235.894 102.445 235.238 103.621C234.581 104.798 233.635 105.787 232.489 106.495C231.343 107.203 230.035 107.606 228.689 107.666C227.343 107.726 226.005 107.44 224.8 106.837C224.717 106.795 224.647 106.731 224.598 106.652C224.55 106.573 224.524 106.482 224.524 106.389Z" fill="black"/>
<path d="M220.438 107.173C220.438 107.107 220.451 107.042 220.476 106.981C220.501 106.921 220.538 106.865 220.584 106.819L235.384 92.019C235.43 91.9712 235.485 91.9331 235.546 91.9069C235.607 91.8807 235.673 91.8669 235.739 91.8664C235.806 91.8658 235.872 91.8784 235.933 91.9036C235.994 91.9287 236.05 91.9658 236.097 92.0128C236.144 92.0597 236.181 92.1156 236.206 92.177C236.232 92.2384 236.244 92.3043 236.244 92.3707C236.243 92.4371 236.229 92.5027 236.203 92.5637C236.177 92.6247 236.139 92.6799 236.091 92.726L221.291 107.526C221.221 107.596 221.132 107.644 221.035 107.663C220.938 107.683 220.837 107.673 220.746 107.635C220.654 107.597 220.576 107.533 220.521 107.45C220.466 107.368 220.437 107.271 220.437 107.172L220.438 107.173Z" fill="black"/>
<path d="M350.338 181.523L350.338 618.523H45.3381L45.3381 181.523L350.338 181.523Z" fill="#FAFAFA"/>
<path d="M350.838 229.023V181.023" stroke="#090814" stroke-linecap="round"/>
<path d="M350.838 181.023H302.838" stroke="#090814" stroke-linecap="round"/>
<path d="M350.838 570.023V618.023" stroke="#090814" stroke-linecap="round"/>
<path d="M350.838 618.023H302.838" stroke="#090814" stroke-linecap="round"/>
<path d="M45.8381 229.023L45.8381 181.023" stroke="#090814" stroke-linecap="round"/>
<path d="M45.8381 181.023H93.8381" stroke="#090814" stroke-linecap="round"/>
<path d="M45.8381 570.023L45.8381 618.023" stroke="#090814" stroke-linecap="round"/>
<path d="M45.8381 618.023H93.8381" stroke="#090814" stroke-linecap="round"/>
<g clip-path="url(#clip1_872_1539)">
<path d="M328.564 272.436H72.5645V528.436H328.564V272.436Z" fill="white"/>
<path d="M99.2311 288.436H88.5645V299.102H99.2311V288.436Z" fill="black"/>
<path d="M109.898 288.436H99.2311V299.102H109.898V288.436Z" fill="black"/>
<path d="M120.564 288.436H109.898V299.102H120.564V288.436Z" fill="black"/>
<path d="M131.231 288.436H120.564V299.102H131.231V288.436Z" fill="black"/>
<path d="M141.898 288.436H131.231V299.102H141.898V288.436Z" fill="black"/>
<path d="M152.564 288.436H141.898V299.102H152.564V288.436Z" fill="black"/>
<path d="M163.231 288.436H152.564V299.102H163.231V288.436Z" fill="black"/>
<path d="M184.564 288.436H173.898V299.102H184.564V288.436Z" fill="black"/>
<path d="M195.231 288.436H184.564V299.102H195.231V288.436Z" fill="black"/>
<path d="M227.231 288.436H216.564V299.102H227.231V288.436Z" fill="black"/>
<path d="M248.564 288.436H237.898V299.102H248.564V288.436Z" fill="black"/>
<path d="M259.231 288.436H248.564V299.102H259.231V288.436Z" fill="black"/>
<path d="M269.898 288.436H259.231V299.102H269.898V288.436Z" fill="black"/>
<path d="M280.564 288.436H269.898V299.102H280.564V288.436Z" fill="black"/>
<path d="M291.231 288.436H280.564V299.102H291.231V288.436Z" fill="black"/>
<path d="M301.898 288.436H291.231V299.102H301.898V288.436Z" fill="black"/>
<path d="M312.564 288.436H301.898V299.102H312.564V288.436Z" fill="black"/>
<path d="M99.2311 299.102H88.5645V309.769H99.2311V299.102Z" fill="black"/>
<path d="M163.231 299.102H152.564V309.769H163.231V299.102Z" fill="black"/>
<path d="M195.231 299.102H184.564L184.564 309.769H195.231V299.102Z" fill="black"/>
<path d="M248.564 299.102H237.898V309.769H248.564V299.102Z" fill="black"/>
<path d="M312.564 299.102H301.898V309.769H312.564V299.102Z" fill="black"/>
<path d="M99.2311 309.769H88.5645V320.436H99.2311V309.769Z" fill="black"/>
<path d="M120.564 309.769H109.898V320.436H120.564V309.769Z" fill="black"/>
<path d="M131.231 309.769H120.564V320.436H131.231V309.769Z" fill="black"/>
<path d="M141.898 309.769H131.231V320.436H141.898V309.769Z" fill="black"/>
<path d="M163.231 309.769H152.564V320.436H163.231V309.769Z" fill="black"/>
<path d="M216.564 309.769H205.898V320.436H216.564V309.769Z" fill="black"/>
<path d="M227.231 309.769H216.564V320.436H227.231V309.769Z" fill="black"/>
<path d="M248.564 309.769H237.898V320.436H248.564V309.769Z" fill="black"/>
<path d="M269.898 309.769H259.231V320.436H269.898V309.769Z" fill="black"/>
<path d="M280.564 309.769H269.898V320.436H280.564V309.769Z" fill="black"/>
<path d="M291.231 309.769H280.564V320.436H291.231V309.769Z" fill="black"/>
<path d="M312.564 309.769H301.898V320.436H312.564V309.769Z" fill="black"/>
<path d="M99.2311 320.436H88.5645V331.102H99.2311V320.436Z" fill="black"/>
<path d="M120.564 320.436H109.898V331.102H120.564V320.436Z" fill="black"/>
<path d="M131.231 320.436H120.564V331.102H131.231V320.436Z" fill="black"/>
<path d="M141.898 320.436H131.231V331.102H141.898V320.436Z" fill="black"/>
<path d="M163.231 320.436H152.564V331.102H163.231V320.436Z" fill="black"/>
<path d="M184.564 320.436H173.898V331.102H184.564V320.436Z" fill="black"/>
<path d="M195.231 320.436H184.564V331.102H195.231V320.436Z" fill="black"/>
<path d="M205.898 320.436H195.231V331.102H205.898L205.898 320.436Z" fill="black"/>
<path d="M248.564 320.436H237.898V331.102H248.564V320.436Z" fill="black"/>
<path d="M269.898 320.436H259.231V331.102H269.898V320.436Z" fill="black"/>
<path d="M280.564 320.436H269.898V331.102H280.564V320.436Z" fill="black"/>
<path d="M291.231 320.436H280.564V331.102H291.231V320.436Z" fill="black"/>
<path d="M312.564 320.436H301.898V331.102H312.564V320.436Z" fill="black"/>
<path d="M99.2311 331.102H88.5645V341.769H99.2311V331.102Z" fill="black"/>
<path d="M120.564 331.102H109.898V341.769H120.564V331.102Z" fill="black"/>
<path d="M131.231 331.102H120.564V341.769H131.231V331.102Z" fill="black"/>
<path d="M141.898 331.102H131.231V341.769H141.898V331.102Z" fill="black"/>
<path d="M163.231 331.102H152.564V341.769H163.231V331.102Z" fill="black"/>
<path d="M195.231 331.102H184.564L184.564 341.769H195.231V331.102Z" fill="black"/>
<path d="M216.564 331.102H205.898L205.898 341.769H216.564V331.102Z" fill="black"/>
<path d="M248.564 331.102H237.898V341.769H248.564V331.102Z" fill="black"/>
<path d="M269.898 331.102H259.231V341.769H269.898V331.102Z" fill="black"/>
<path d="M280.564 331.102H269.898V341.769H280.564V331.102Z" fill="black"/>
<path d="M291.231 331.102H280.564V341.769H291.231V331.102Z" fill="black"/>
<path d="M312.564 331.102H301.898V341.769H312.564V331.102Z" fill="black"/>
<path d="M99.2311 341.769H88.5645V352.436H99.2311V341.769Z" fill="black"/>
<path d="M163.231 341.769H152.564V352.436H163.231V341.769Z" fill="black"/>
<path d="M184.564 341.769H173.898V352.436H184.564L184.564 341.769Z" fill="black"/>
<path d="M205.898 341.769H195.231L195.231 352.436H205.898L205.898 341.769Z" fill="black"/>
<path d="M216.564 341.769H205.898L205.898 352.436H216.564V341.769Z" fill="black"/>
<path d="M248.564 341.769H237.898V352.436H248.564V341.769Z" fill="black"/>
<path d="M312.564 341.769H301.898V352.436H312.564V341.769Z" fill="black"/>
<path d="M99.2311 352.436H88.5645V363.102H99.2311V352.436Z" fill="black"/>
<path d="M109.898 352.436H99.2311V363.102H109.898V352.436Z" fill="black"/>
<path d="M120.564 352.436H109.898V363.102H120.564V352.436Z" fill="black"/>
<path d="M131.231 352.436H120.564V363.102H131.231V352.436Z" fill="black"/>
<path d="M141.898 352.436H131.231V363.102H141.898V352.436Z" fill="black"/>
<path d="M152.564 352.436H141.898V363.102H152.564V352.436Z" fill="black"/>
<path d="M163.231 352.436H152.564V363.102H163.231V352.436Z" fill="black"/>
<path d="M184.564 352.436H173.898V363.102H184.564V352.436Z" fill="black"/>
<path d="M205.898 352.436H195.231V363.102H205.898V352.436Z" fill="black"/>
<path d="M227.231 352.436H216.564V363.102H227.231V352.436Z" fill="black"/>
<path d="M248.564 352.436H237.898V363.102H248.564V352.436Z" fill="black"/>
<path d="M259.231 352.436H248.564V363.102H259.231V352.436Z" fill="black"/>
<path d="M269.898 352.436H259.231V363.102H269.898V352.436Z" fill="black"/>
<path d="M280.564 352.436H269.898V363.102H280.564V352.436Z" fill="black"/>
<path d="M291.231 352.436H280.564V363.102H291.231V352.436Z" fill="black"/>
<path d="M301.898 352.436H291.231V363.102H301.898V352.436Z" fill="black"/>
<path d="M312.564 352.436H301.898V363.102H312.564V352.436Z" fill="black"/>
<path d="M205.898 363.102H195.231V373.769H205.898V363.102Z" fill="black"/>
<path d="M216.564 363.102H205.898V373.769H216.564V363.102Z" fill="black"/>
<path d="M152.564 373.769H141.898V384.436H152.564V373.769Z" fill="black"/>
<path d="M163.231 373.769H152.564V384.436H163.231V373.769Z" fill="black"/>
<path d="M184.564 373.769H173.898V384.436H184.564V373.769Z" fill="black"/>
<path d="M237.898 373.769H227.231V384.436H237.898V373.769Z" fill="black"/>
<path d="M259.231 373.769H248.564V384.436H259.231V373.769Z" fill="black"/>
<path d="M280.564 373.769H269.898V384.436H280.564V373.769Z" fill="black"/>
<path d="M312.564 373.769H301.898V384.436H312.564V373.769Z" fill="black"/>
<path d="M109.898 384.436H99.2311V395.102H109.898V384.436Z" fill="black"/>
<path d="M131.231 384.436H120.564V395.102H131.231V384.436Z" fill="black"/>
<path d="M195.231 384.436L184.564 384.436L184.564 395.102H195.231V384.436Z" fill="black"/>
<path d="M216.564 384.436H205.898V395.102H216.564V384.436Z" fill="black"/>
<path d="M237.898 384.436H227.231V395.102H237.898V384.436Z" fill="black"/>
<path d="M248.564 384.436H237.898V395.102H248.564V384.436Z" fill="black"/>
<path d="M269.898 384.436H259.231V395.102H269.898V384.436Z" fill="black"/>
<path d="M280.564 384.436H269.898V395.102H280.564V384.436Z" fill="black"/>
<path d="M312.564 384.436H301.898V395.102H312.564V384.436Z" fill="black"/>
<path d="M141.898 395.102L131.231 395.102V405.769H141.898V395.102Z" fill="black"/>
<path d="M163.231 395.102H152.564V405.769H163.231V395.102Z" fill="black"/>
<path d="M173.898 395.102H163.231V405.769H173.898V395.102Z" fill="black"/>
<path d="M184.564 395.102L173.898 395.102V405.769H184.564L184.564 395.102Z" fill="black"/>
<path d="M195.231 395.102H184.564L184.564 405.769H195.231V395.102Z" fill="black"/>
<path d="M205.898 395.102H195.231V405.769H205.898L205.898 395.102Z" fill="black"/>
<path d="M216.564 395.102H205.898L205.898 405.769H216.564V395.102Z" fill="black"/>
<path d="M280.564 395.102H269.898V405.769H280.564V395.102Z" fill="black"/>
<path d="M301.898 395.102L291.231 395.102V405.769H301.898V395.102Z" fill="black"/>
<path d="M312.564 395.102H301.898V405.769H312.564V395.102Z" fill="black"/>
<path d="M99.2311 405.769H88.5645V416.436H99.2311V405.769Z" fill="black"/>
<path d="M109.898 405.769H99.2311V416.436H109.898V405.769Z" fill="black"/>
<path d="M120.564 405.769H109.898V416.436H120.564V405.769Z" fill="black"/>
<path d="M141.898 405.769H131.231V416.436H141.898V405.769Z" fill="black"/>
<path d="M184.564 405.769H173.898L173.898 416.436H184.564V405.769Z" fill="black"/>
<path d="M195.231 405.769H184.564V416.436H195.231V405.769Z" fill="black"/>
<path d="M205.898 405.769H195.231V416.436H205.898V405.769Z" fill="black"/>
<path d="M227.231 405.769L216.564 405.769V416.436H227.231V405.769Z" fill="black"/>
<path d="M248.564 405.769H237.898V416.436H248.564V405.769Z" fill="black"/>
<path d="M291.231 405.769H280.564V416.436H291.231V405.769Z" fill="black"/>
<path d="M301.898 405.769H291.231V416.436H301.898V405.769Z" fill="black"/>
<path d="M141.898 416.436H131.231V427.102H141.898V416.436Z" fill="black"/>
<path d="M163.231 416.436H152.564V427.102H163.231V416.436Z" fill="black"/>
<path d="M184.564 416.436H173.898V427.102H184.564V416.436Z" fill="black"/>
<path d="M216.564 416.436H205.898L205.898 427.102H216.564V416.436Z" fill="black"/>
<path d="M248.564 416.436H237.898V427.102H248.564V416.436Z" fill="black"/>
<path d="M269.898 416.436H259.231V427.102H269.898V416.436Z" fill="black"/>
<path d="M301.898 416.436H291.231V427.102H301.898V416.436Z" fill="black"/>
<path d="M184.564 427.102H173.898V437.769H184.564V427.102Z" fill="black"/>
<path d="M237.898 427.102H227.231V437.769H237.898V427.102Z" fill="black"/>
<path d="M248.564 427.102H237.898V437.769H248.564V427.102Z" fill="black"/>
<path d="M269.898 427.102H259.231V437.769H269.898V427.102Z" fill="black"/>
<path d="M291.231 427.102H280.564V437.769H291.231V427.102Z" fill="black"/>
<path d="M99.2311 437.769H88.5645V448.436H99.2311V437.769Z" fill="black"/>
<path d="M109.898 437.769H99.2311V448.436H109.898V437.769Z" fill="black"/>
<path d="M120.564 437.769H109.898V448.436H120.564V437.769Z" fill="black"/>
<path d="M131.231 437.769H120.564V448.436H131.231V437.769Z" fill="black"/>
<path d="M141.898 437.769H131.231V448.436H141.898V437.769Z" fill="black"/>
<path d="M152.564 437.769H141.898V448.436H152.564V437.769Z" fill="black"/>
<path d="M163.231 437.769H152.564V448.436H163.231V437.769Z" fill="black"/>
<path d="M205.898 437.769H195.231V448.436H205.898V437.769Z" fill="black"/>
<path d="M216.564 437.769H205.898V448.436H216.564V437.769Z" fill="black"/>
<path d="M248.564 437.769H237.898V448.436H248.564V437.769Z" fill="black"/>
<path d="M280.564 437.769H269.898V448.436H280.564V437.769Z" fill="black"/>
<path d="M99.2311 448.436H88.5645V459.102H99.2311V448.436Z" fill="black"/>
<path d="M163.231 448.436H152.564V459.102H163.231V448.436Z" fill="black"/>
<path d="M184.564 448.436H173.898V459.102H184.564V448.436Z" fill="black"/>
<path d="M195.231 448.436H184.564V459.102H195.231L195.231 448.436Z" fill="black"/>
<path d="M205.898 448.436H195.231L195.231 459.102H205.898V448.436Z" fill="black"/>
<path d="M216.564 448.436H205.898V459.102H216.564V448.436Z" fill="black"/>
<path d="M237.898 448.436H227.231V459.102H237.898V448.436Z" fill="black"/>
<path d="M259.231 448.436H248.564V459.102H259.231V448.436Z" fill="black"/>
<path d="M291.231 448.436H280.564V459.102H291.231V448.436Z" fill="black"/>
<path d="M312.564 448.436H301.898V459.102H312.564V448.436Z" fill="black"/>
<path d="M99.2311 459.102H88.5645V469.769H99.2311V459.102Z" fill="black"/>
<path d="M120.564 459.102H109.898V469.769H120.564V459.102Z" fill="black"/>
<path d="M131.231 459.102H120.564V469.769H131.231V459.102Z" fill="black"/>
<path d="M141.898 459.102H131.231V469.769H141.898V459.102Z" fill="black"/>
<path d="M163.231 459.102H152.564V469.769H163.231V459.102Z" fill="black"/>
<path d="M195.231 459.102H184.564L184.564 469.769H195.231V459.102Z" fill="black"/>
<path d="M227.231 459.102H216.564V469.769H227.231V459.102Z" fill="black"/>
<path d="M248.564 459.102H237.898V469.769H248.564V459.102Z" fill="black"/>
<path d="M259.231 459.102H248.564V469.769H259.231V459.102Z" fill="black"/>
<path d="M280.564 459.102H269.898V469.769H280.564V459.102Z" fill="black"/>
<path d="M291.231 459.102H280.564V469.769H291.231V459.102Z" fill="black"/>
<path d="M301.898 459.102H291.231V469.769H301.898V459.102Z" fill="black"/>
<path d="M312.564 459.102H301.898V469.769H312.564V459.102Z" fill="black"/>
<path d="M99.2311 469.769H88.5645V480.436H99.2311V469.769Z" fill="black"/>
<path d="M120.564 469.769H109.898V480.436H120.564V469.769Z" fill="black"/>
<path d="M131.231 469.769H120.564V480.436H131.231V469.769Z" fill="black"/>
<path d="M141.898 469.769H131.231V480.436H141.898V469.769Z" fill="black"/>
<path d="M163.231 469.769H152.564V480.436H163.231V469.769Z" fill="black"/>
<path d="M195.231 469.769H184.564V480.436H195.231V469.769Z" fill="black"/>
<path d="M205.898 469.769H195.231V480.436H205.898V469.769Z" fill="black"/>
<path d="M216.564 469.769H205.898V480.436H216.564V469.769Z" fill="black"/>
<path d="M227.231 469.769H216.564V480.436H227.231V469.769Z" fill="black"/>
<path d="M237.898 469.769H227.231V480.436H237.898V469.769Z" fill="black"/>
<path d="M269.898 469.769H259.231V480.436H269.898V469.769Z" fill="black"/>
<path d="M280.564 469.769H269.898V480.436H280.564V469.769Z" fill="black"/>
<path d="M312.564 469.769H301.898V480.436H312.564V469.769Z" fill="black"/>
<path d="M99.2311 480.436H88.5645V491.102H99.2311V480.436Z" fill="black"/>
<path d="M120.564 480.436H109.898V491.102H120.564V480.436Z" fill="black"/>
<path d="M131.231 480.436H120.564V491.102H131.231V480.436Z" fill="black"/>
<path d="M141.898 480.436H131.231V491.102H141.898V480.436Z" fill="black"/>
<path d="M163.231 480.436H152.564V491.102H163.231V480.436Z" fill="black"/>
<path d="M205.898 480.436H195.231L195.231 491.102H205.898V480.436Z" fill="black"/>
<path d="M291.231 480.436H280.564V491.102H291.231V480.436Z" fill="black"/>
<path d="M99.2311 491.102H88.5645V501.769H99.2311V491.102Z" fill="black"/>
<path d="M163.231 491.102H152.564V501.769H163.231V491.102Z" fill="black"/>
<path d="M195.231 491.102H184.564V501.769H195.231L195.231 491.102Z" fill="black"/>
<path d="M227.231 491.102H216.564V501.769H227.231V491.102Z" fill="black"/>
<path d="M248.564 491.102H237.898V501.769H248.564V491.102Z" fill="black"/>
<path d="M259.231 491.102H248.564V501.769H259.231V491.102Z" fill="black"/>
<path d="M269.898 491.102H259.231V501.769H269.898V491.102Z" fill="black"/>
<path d="M280.564 491.102H269.898V501.769H280.564V491.102Z" fill="black"/>
<path d="M312.564 491.102H301.898V501.769H312.564V491.102Z" fill="black"/>
<path d="M99.2311 501.769H88.5645V512.436H99.2311V501.769Z" fill="black"/>
<path d="M109.898 501.769H99.2311V512.436H109.898V501.769Z" fill="black"/>
<path d="M120.564 501.769H109.898V512.436H120.564V501.769Z" fill="black"/>
<path d="M131.231 501.769H120.564V512.436H131.231V501.769Z" fill="black"/>
<path d="M141.898 501.769H131.231V512.436H141.898V501.769Z" fill="black"/>
<path d="M152.564 501.769H141.898V512.436H152.564V501.769Z" fill="black"/>
<path d="M163.231 501.769H152.564V512.436H163.231V501.769Z" fill="black"/>
<path d="M195.231 501.769H184.564V512.436H195.231V501.769Z" fill="black"/>
<path d="M205.898 501.769H195.231V512.436H205.898V501.769Z" fill="black"/>
<path d="M216.564 501.769H205.898V512.436H216.564V501.769Z" fill="black"/>
<path d="M227.231 501.769H216.564V512.436H227.231V501.769Z" fill="black"/>
<path d="M237.898 501.769H227.231V512.436H237.898V501.769Z" fill="black"/>
<path d="M259.231 501.769H248.564V512.436H259.231V501.769Z" fill="black"/>
<path d="M280.564 501.769H269.898V512.436H280.564V501.769Z" fill="black"/>
<path d="M291.231 501.769H280.564V512.436H291.231V501.769Z" fill="black"/>
</g>
</g>
<defs>
<clipPath id="clip0_872_1539">
<rect width="799.546" height="398.675" fill="white" transform="matrix(0 1 -1 0 398.675 0)"/>
</clipPath>
<clipPath id="clip1_872_1539">
<rect width="256" height="256" fill="white" transform="translate(72.5645 272.436)"/>
</clipPath>
</defs>
</svg>
