<svg width="800" height="741" viewBox="0 0 800 741" fill="none" xmlns="http://www.w3.org/2000/svg">
<g clip-path="url(#clip0_870_790)">
<path d="M266.798 414.991L200.291 380.408C200.291 380.408 177.957 355.808 163.931 344.708C149.905 333.608 145.587 341.76 145.587 341.76L139.687 351.587L153.938 371.4L192.427 403.993L261.2 430.93C262.275 432.691 263.828 434.112 265.679 435.025C267.529 435.939 269.6 436.31 271.653 436.093C273.705 435.876 275.654 435.082 277.273 433.802C278.891 432.522 280.114 430.809 280.798 428.862C281.482 426.915 281.599 424.814 281.137 422.803C280.674 420.792 279.651 418.953 278.185 417.501C276.719 416.048 274.871 415.041 272.856 414.597C270.841 414.153 268.741 414.289 266.8 414.991H266.798Z" fill="#FFB9B9"/>
<path d="M93.809 385.082L89.872 360.993L78.754 358.214C78.754 358.214 69.93 355.496 67.868 373.27C65.806 391.044 67.405 424.227 67.405 424.227L44.832 495.708C42.9544 496.581 41.3635 497.97 40.2446 499.713C39.1257 501.455 38.5249 503.48 38.5121 505.551C38.4992 507.621 39.0749 509.653 40.1721 511.409C41.2693 513.166 42.8428 514.574 44.7094 515.471C46.5761 516.367 48.659 516.715 50.7157 516.474C52.7724 516.233 54.7182 515.412 56.3266 514.107C57.935 512.803 59.1397 511.069 59.8004 509.106C60.4612 507.143 60.5509 505.034 60.059 503.022L89.644 435.344L93.809 385.082Z" fill="#FFB9B9"/>
<path d="M185.77 723.131H200.318L207.24 667.016H185.767L185.77 723.131Z" fill="#FFB9B9"/>
<path d="M27.088 723.131H41.637L48.558 667.016H27.086L27.088 723.131Z" fill="#FFB9B9"/>
<path d="M139 325.763H73.759C72.4169 325.762 71.1301 325.228 70.1811 324.279C69.232 323.33 68.6983 322.043 68.697 320.701V292.575C68.697 282.581 72.667 272.997 79.7338 265.93C86.8005 258.863 96.3851 254.893 106.379 254.893C116.373 254.893 125.957 258.863 133.024 265.93C140.091 272.997 144.061 282.581 144.061 292.575V320.696C144.061 322.039 143.528 323.327 142.579 324.277C141.63 325.227 140.343 325.761 139 325.763Z" fill="#2F2E41"/>
<path d="M134.563 311.24C134.563 311.24 131.152 342.374 135.957 349.76C138.833 354.267 140.08 359.623 139.49 364.937L115.894 371.929L87.0316 358.693C87.0316 358.693 112.047 324.645 106.198 314.225C100.349 303.804 134.563 311.24 134.563 311.24Z" fill="#FFB9B9"/>
<path d="M98.911 336.962L74.78 357.562L94.58 420.231L99.048 434.225C99.048 434.225 71.763 459.381 54.881 529.656C37.999 599.931 10.381 693.308 10.381 693.308L68.684 709.994L116.111 551.027L171.896 675.742L178.337 712.63L227.978 697.989L216.268 605.477L157.716 445.341L163.798 402.889C163.798 402.889 172.931 381.701 157.065 359.268L152.084 338.189L134.255 333.798L98.911 336.962Z" fill="#E6E6E6"/>
<path d="M138.361 310.732C145.68 297.344 140.76 280.558 127.371 273.239C113.983 265.921 97.1971 270.841 89.8785 284.229C82.5599 297.618 87.4803 314.404 100.868 321.722C114.257 329.041 131.043 324.121 138.361 310.732Z" fill="#FFB9B9"/>
<path d="M152.976 295.392H113.083L112.674 289.665L110.629 295.392H104.486L103.675 284.04L99.621 295.392H87.735V294.83C87.744 286.927 90.8873 279.351 96.4755 273.762C102.064 268.174 109.64 265.031 117.543 265.022H123.167C131.07 265.031 138.646 268.174 144.234 273.762C149.823 279.351 152.966 286.927 152.975 294.83L152.976 295.392Z" fill="#2F2E41"/>
<path d="M112.756 331.012C112.454 331.012 112.153 330.986 111.856 330.933L82.644 325.779V277.501H114.8L114 278.429C102.923 291.347 111.268 312.294 117.228 323.629C117.667 324.46 117.862 325.397 117.791 326.334C117.721 327.271 117.387 328.169 116.828 328.924C116.361 329.57 115.747 330.096 115.037 330.459C114.326 330.822 113.54 331.011 112.743 331.011L112.756 331.012Z" fill="#2F2E41"/>
<path opacity="0.096" d="M369.761 551.808L369.994 552.466C372.13 558.511 371.777 565.157 369.014 570.942C366.25 576.727 361.301 581.177 355.256 583.313L97.964 674.281C91.9202 676.417 85.2754 676.065 79.4911 673.303C73.7067 670.54 69.2564 665.593 67.119 659.55L66.886 658.892L369.761 551.808Z" fill="#F2F2F2"/>
<path d="M234.869 732.751C230.58 736.502 225.045 738.519 219.348 738.405C208.837 738.251 189.198 737.937 184.638 737.743C178.538 737.468 180.56 732.143 180.758 728.479V728.116C180.829 724.441 181.548 716.477 182.765 715.233C183.982 713.989 188.147 720.774 188.147 720.774C188.147 720.774 196.279 723.197 198.516 715.928C200.753 708.659 205.297 707.956 205.297 707.956C207.36 707.043 207.462 712.527 207.462 712.527L224.675 721.597L234.775 723.213C235.099 723.366 235.391 723.52 235.668 723.673C240.234 726.289 238.212 729.795 234.869 732.751Z" fill="#090814"/>
<path d="M77.826 732.751C73.5367 736.502 68.0022 738.519 62.305 738.405C51.794 738.251 32.155 737.937 27.595 737.743C21.495 737.468 23.517 732.143 23.715 728.479V728.116C23.786 724.441 24.505 716.477 25.722 715.233C26.939 713.989 31.104 720.774 31.104 720.774C31.104 720.774 39.236 723.197 41.473 715.928C43.71 708.659 48.254 707.956 48.254 707.956C50.317 707.043 50.419 712.527 50.419 712.527L67.632 721.597L77.732 723.213C78.056 723.366 78.348 723.52 78.625 723.673C83.191 726.289 81.169 729.795 77.826 732.751Z" fill="#090814"/>
<path d="M767.626 176.007H763.553V64.522C763.553 47.4096 756.755 30.9982 744.654 18.898C732.554 6.7978 716.142 5.69477e-09 699.03 7.75002e-09H462.83C454.357 -0.000131315 445.966 1.66868 438.138 4.91116C430.31 8.15363 423.197 12.9063 417.205 18.8977C411.214 24.8891 406.461 32.002 403.219 39.8303C399.976 47.6585 398.307 56.0488 398.307 64.522V676.138C398.307 693.25 405.105 709.662 417.206 721.762C429.306 733.862 445.718 740.66 462.83 740.66H699.03C716.143 740.66 732.554 733.862 744.655 721.762C756.755 709.661 763.553 693.25 763.553 676.137V255.365H767.624L767.626 176.007Z" fill="#090814"/>
<path d="M700.612 16.7839H669.781C671.199 20.2604 671.74 24.0322 671.357 27.7671C670.974 31.5019 669.678 35.0852 667.583 38.2012C665.489 41.3171 662.66 43.8701 659.346 45.6352C656.032 47.4003 652.335 48.3233 648.581 48.3229H513.265C509.511 48.3233 505.814 47.4003 502.5 45.6352C499.186 43.8701 496.357 41.3171 494.263 38.2012C492.168 35.0852 490.872 31.5019 490.489 27.7671C490.106 24.0322 490.647 20.2604 492.065 16.7839H463.265C450.485 16.7839 438.228 21.8608 429.192 30.8976C420.155 39.9344 415.078 52.191 415.078 64.9709V675.688C415.078 682.016 416.324 688.282 418.746 694.128C421.168 699.975 424.717 705.287 429.192 709.761C433.666 714.236 438.978 717.785 444.825 720.207C450.671 722.629 456.937 723.875 463.265 723.875H700.602C713.382 723.875 725.638 718.798 734.675 709.762C743.712 700.725 748.789 688.469 748.789 675.689V64.9709C748.789 52.1929 743.714 39.938 734.679 30.9015C725.645 21.865 713.391 16.7869 700.613 16.7839H700.612Z" fill="white"/>
<path d="M295.041 415.46C301.247 413.279 308.065 413.648 313.998 416.487C319.747 419.237 324.211 424.087 326.481 430.025L326.694 430.603L370.598 555.018C372.779 561.224 372.41 568.041 369.571 573.975C366.733 579.908 361.658 584.474 355.459 586.67L99.3937 677.029C93.1879 679.21 86.3703 678.842 80.4363 676.003C74.5024 673.165 69.9362 668.088 67.7398 661.888L67.7408 661.888L23.8335 537.473C21.6527 531.267 22.0221 524.45 24.8606 518.516C27.6994 512.582 32.7761 508.016 38.9767 505.82L38.9757 505.819L295.041 415.46Z" fill="#F22F52" stroke="#3F3D56"/>
<rect x="49.6537" y="543.563" width="40" height="40" transform="rotate(-19.309 49.6537 543.563)" fill="white"/>
<rect x="106.279" y="523.723" width="40" height="40" transform="rotate(-19.309 106.279 523.723)" fill="white"/>
<rect x="162.904" y="503.883" width="40" height="40" transform="rotate(-19.309 162.904 503.883)" fill="white"/>
<rect x="219.529" y="484.043" width="40" height="40" transform="rotate(-19.309 219.529 484.043)" fill="white"/>
<rect x="276.153" y="464.204" width="40" height="40" transform="rotate(-19.309 276.153 464.204)" fill="white"/>
<rect x="69.8242" y="601.131" width="40" height="40" transform="rotate(-19.309 69.8242 601.131)" fill="white"/>
<rect x="126.449" y="581.292" width="40" height="40" transform="rotate(-19.309 126.449 581.292)" fill="white"/>
<rect x="183.074" y="561.452" width="40" height="40" transform="rotate(-19.309 183.074 561.452)" fill="white"/>
<rect x="239.699" y="541.612" width="40" height="40" transform="rotate(-19.309 239.699 541.612)" fill="white"/>
<rect x="296.324" y="521.772" width="40" height="40" transform="rotate(-19.309 296.324 521.772)" fill="white"/>
<path opacity="0.096" d="M371.5 555.577L371.733 556.235C373.878 562.277 373.534 568.923 370.778 574.712C368.022 580.5 363.079 584.957 357.037 587.102L99.8694 678.419C93.8285 680.564 87.1833 680.221 81.3952 677.466C75.607 674.712 71.1501 669.771 69.0044 663.73L68.7705 663.073L371.5 555.577Z" fill="#F2F2F2"/>
<path d="M328.15 433.283L24.1331 539.797L24.6403 541.245L328.657 434.73L328.15 433.283Z" fill="#3F3D56"/>
<rect x="454" y="209" width="258" height="498" rx="17" fill="#F22F52" stroke="#3F3D56" stroke-width="2"/>
<rect x="468" y="395" width="50" height="50" fill="white"/>
<rect x="528" y="395" width="50" height="50" fill="white"/>
<rect x="588" y="395" width="50" height="50" fill="white"/>
<rect x="648" y="395" width="50" height="50" fill="white"/>
<rect x="468" y="461" width="50" height="50" fill="white"/>
<rect x="528" y="461" width="50" height="50" fill="white"/>
<rect x="588" y="461" width="50" height="50" fill="white"/>
<rect x="648" y="461" width="50" height="50" fill="white"/>
<rect x="468" y="593" width="50" height="50" fill="white"/>
<rect x="528" y="593" width="50" height="50" fill="white"/>
<rect x="588" y="593" width="50" height="50" fill="white"/>
<rect x="648" y="593" width="50" height="50" fill="white"/>
<rect x="468" y="527" width="50" height="50" fill="white"/>
<rect x="528" y="527" width="50" height="50" fill="white"/>
<rect x="588" y="527" width="50" height="50" fill="white"/>
<rect x="648" y="527" width="50" height="50" fill="white"/>
<rect x="533" y="254" width="100" height="100" rx="50" fill="white"/>
<rect x="473" y="400" width="40" height="40" fill="#DF5C7E"/>
</g>
<defs>
<clipPath id="clip0_870_790">
<rect width="800.008" height="740.66" fill="white"/>
</clipPath>
</defs>
</svg>
