<svg width="528" height="527" viewBox="0 0 528 527" fill="none" xmlns="http://www.w3.org/2000/svg">
<path d="M277.707 34.8494H263.203L261.558 51.2104H277.707V34.8494Z" fill="#ED9DA0"/>
<path d="M273.898 9.21804C265.453 8.62569 258.126 14.9917 257.534 23.4369C256.941 31.882 263.307 39.2084 271.753 39.8008C280.198 40.3931 287.524 34.0271 288.117 25.5819C288.709 17.1368 282.343 9.81039 273.898 9.21804Z" fill="#ED9DA0"/>
<path d="M267.607 1.63357C267.546 1.47644 267.439 1.34117 267.301 1.24514C267.162 1.1491 266.998 1.09668 266.829 1.09462C273.86 1.16651 281.173 2.50182 286.762 6.76913C288.045 7.8915 289.419 8.90473 290.871 9.79823C290.941 9.83601 291.001 9.89146 291.044 9.95916C291.087 10.0269 291.111 10.1045 291.115 10.1846C291.119 10.2646 291.102 10.3444 291.066 10.416C291.031 10.4876 290.977 10.5487 290.91 10.5933L290.731 10.7141C290.659 10.7617 290.602 10.828 290.566 10.9059C290.53 10.9838 290.516 11.0702 290.526 11.1556C290.536 11.2409 290.569 11.3219 290.622 11.3896C290.675 11.4573 290.745 11.509 290.826 11.5391C290.909 11.571 290.981 11.6258 291.034 11.6972C291.086 11.7687 291.118 11.8537 291.124 11.9423C291.13 12.031 291.111 12.1195 291.068 12.1975C291.025 12.2755 290.962 12.3398 290.884 12.3827L289.527 13.132C289.459 13.1694 289.402 13.2232 289.36 13.2886C289.318 13.354 289.293 13.4289 289.288 13.5063C289.283 13.5838 289.297 13.6613 289.329 13.7319C289.361 13.8025 289.411 13.8639 289.473 13.9104C289.578 13.9862 289.689 14.0531 289.806 14.1103C289.878 14.1436 289.941 14.195 289.988 14.2597C290.035 14.3243 290.065 14.3999 290.074 14.4793C290.083 14.5586 290.072 14.639 290.041 14.7127C290.01 14.7864 289.961 14.8509 289.898 14.9C289.3 15.3616 288.824 15.9624 288.511 16.6501C288.056 17.773 287.775 18.9591 287.678 20.167C287.352 18.3981 285.527 17.2421 283.743 17.0117C281.944 16.9273 280.143 17.1098 278.397 17.5534C274.534 18.2099 270.579 18.0849 266.766 17.1859C267.891 19.9064 266.566 22.9647 265.264 25.6052L261.773 23.8099C257.026 20.6688 259.644 32.7178 261.376 34.467C257.505 35.5063 248.648 20.2948 252.211 15.0106C254.064 12.2613 253.15 8.48436 256.59 5.99074C258.305 4.4261 261.427 5.39427 263.149 4.11495C263.826 3.61185 262.955 2.07647 263.855 1.81771C265.1 1.66478 266.354 1.60323 267.607 1.63357Z" fill="#2F2E41"/>
<path d="M281.639 42.9841L285.035 48.5056L306.364 56.2755L304.614 109.27L302.71 114.878L304.277 119.523L301.54 123.225C304.724 125.723 305.301 128.529 303.879 131.575L294.507 134.424C294.507 134.424 241.88 142.847 245.767 134.331C250.015 125.025 249.4 98.4627 237.643 85.0712C227.661 73.7003 233.584 57.6234 233.584 57.6234L254.807 49.6239L262.451 44.3299L281.639 42.9841Z" fill="#3F3D56"/>
<path d="M185.392 89.7904C185.977 90.6279 186.738 91.3269 187.623 91.8383C188.507 92.3497 189.493 92.6611 190.51 92.7506C191.528 92.84 192.553 92.7053 193.513 92.356C194.473 92.0066 195.344 91.4512 196.067 90.7286L218.428 101.548L216.728 88.7529L195.754 80.4396C194.459 79.3075 192.793 78.6897 191.073 78.7034C189.353 78.7171 187.697 79.3613 186.42 80.5139C185.143 81.6665 184.333 83.2475 184.143 84.9573C183.954 86.6672 184.398 88.3872 185.392 89.7914L185.392 89.7904Z" fill="#ED9DA0"/>
<path d="M251.923 51.3047C249.991 63.9586 244.835 93.549 237.959 100.144C237.527 100.614 236.995 100.98 236.402 101.217C211.177 109.27 201.835 93.8983 201.835 93.8983C201.835 93.8983 208.477 90.0647 208.192 83.5006L222.366 86.8309L232.546 58.7736L234.209 56.9901L234.219 56.9794L251.923 51.3047Z" fill="#3F3D56"/>
<path d="M304.214 314.026C309.942 314.76 315.885 315.226 321.371 313.447C322.235 313.179 323.185 312.583 323.099 311.719C323.037 311.405 322.904 311.11 322.71 310.855C320.642 307.754 318.905 304.445 317.527 300.981C317.472 300.801 317.36 300.643 317.207 300.532C317.028 300.468 316.833 300.468 316.654 300.532C314.123 301.197 311.937 302.832 309.423 303.532C308.141 303.884 306.804 303.984 305.484 303.826C304.344 303.696 302.784 302.755 301.752 302.876C302.339 306.649 303.773 310.173 304.214 314.026Z" fill="#6C63FF"/>
<path d="M412.535 304.46C416.31 301.868 420.223 299.147 422.452 295.147C422.611 294.909 422.703 294.633 422.72 294.347C422.682 294.065 422.572 293.797 422.4 293.569C420.277 290.194 417.544 287.244 414.34 284.869C412.668 286.05 411.158 287.444 409.848 289.016C408.898 290.016 406.272 291.608 406.248 293.137C406.248 294.001 407.248 295.003 407.717 295.729C408.348 296.662 408.944 297.612 409.517 298.58C409.84 299.055 412.837 304.273 412.535 304.46Z" fill="#6C63FF"/>
<path d="M326.666 325.594C326.733 326.484 326.489 327.37 325.975 328.099C325.572 328.505 325.073 328.802 324.524 328.963C316.516 331.831 307.246 328.255 299.256 331.08C297.615 331.659 296.056 332.497 294.41 333.05C292.443 333.642 290.413 334.001 288.363 334.121C285.538 334.389 282.696 334.562 279.863 334.639C277.71 334.791 275.547 334.602 273.453 334.077C272.406 333.809 271.427 333.322 270.58 332.651C269.733 331.979 269.038 331.136 268.538 330.177C268.104 329.318 268.017 328.325 268.296 327.404C268.421 327.088 268.599 326.796 268.823 326.54C269.364 325.933 270 325.416 270.706 325.011L273.652 323.111C275.033 322.134 276.534 321.339 278.118 320.744C279.284 320.364 280.518 320.2 281.703 319.88C285.841 318.671 289.003 315.388 291.94 312.235L295.948 307.959C296.323 307.489 296.798 307.108 297.339 306.845C297.895 306.66 298.486 306.604 299.067 306.681C302.961 306.959 306.72 308.219 309.995 310.344C310.833 310.972 311.739 311.506 312.695 311.934C315.045 312.85 318.06 312.159 320.228 311.001C321.256 310.448 321.028 310.137 321.463 309.152C321.898 308.167 322.949 307.537 323.863 308.435C324.139 308.746 324.335 309.12 324.433 309.524C325.297 312.375 324.969 315.442 324.969 318.431C324.944 318.899 325.002 319.367 325.142 319.813C325.362 320.264 325.626 320.692 325.928 321.092C325.989 321.198 326.044 321.308 326.092 321.42C326.621 322.744 326.819 324.176 326.671 325.593L326.666 325.594Z" fill="#514E7F"/>
<path d="M326.666 325.593C326.733 326.483 326.489 327.369 325.975 328.098C325.572 328.504 325.073 328.801 324.524 328.962C316.516 331.83 307.246 328.254 299.256 331.079C297.615 331.658 296.056 332.496 294.41 333.049C292.443 333.641 290.413 334 288.363 334.12C285.538 334.388 282.696 334.561 279.863 334.638C277.71 334.791 275.547 334.601 273.453 334.076C272.406 333.808 271.427 333.322 270.58 332.65C269.733 331.978 269.038 331.135 268.538 330.176C268.102 329.319 268.013 328.327 268.289 327.405C268.414 327.09 268.592 326.797 268.816 326.541C269.282 327.517 269.616 328.813 269.916 329.279C270.313 329.97 270.853 330.568 271.499 331.034C272.146 331.499 272.884 331.822 273.665 331.979C274.834 332.051 276.006 331.901 277.12 331.538C284.377 329.738 292.091 329.715 299.062 326.994C301.455 326.052 303.736 324.8 306.249 324.23C308.762 323.66 311.432 323.815 314.024 323.599C318.119 323.271 322.084 322.035 326.118 321.387C326.639 322.722 326.826 324.164 326.662 325.587L326.666 325.593Z" fill="#464353"/>
<path d="M430.875 303.936C430.495 306.977 428.568 309.594 426.452 311.815C424.336 314.036 421.943 316.031 420.258 318.588C418.185 321.758 417.252 325.688 414.558 328.367C413.524 329.341 412.361 330.169 411.103 330.829C409.693 331.661 408.203 332.347 406.654 332.876C402.628 334.163 398.292 333.87 394.085 333.558C392.719 333.545 391.367 333.285 390.094 332.789C389.514 332.495 388.96 332.154 388.435 331.77C387.38 331.121 386.492 330.233 385.843 329.178C385.524 328.605 385.434 327.932 385.592 327.295C385.832 326.594 386.245 325.964 386.792 325.464C387.739 324.48 388.755 323.565 389.833 322.726C391.313 321.772 392.647 320.608 393.793 319.27C394.495 318.214 395.012 317.045 395.322 315.814C395.934 313.659 396.307 311.442 396.436 309.205C396.431 307.719 396.585 306.236 396.894 304.782C397.533 302.501 399.227 300.463 399.036 298.104C398.959 297.767 398.989 297.413 399.122 297.093C399.323 296.844 399.604 296.67 399.917 296.601C401.237 296.075 402.629 295.752 404.046 295.642C404.757 295.593 405.469 295.702 406.133 295.961C406.796 296.221 407.393 296.624 407.882 297.142C408.469 297.85 408.858 298.87 409.722 299.142C410.15 299.259 410.599 299.277 411.035 299.194C413.16 298.978 415.406 298.71 417.082 297.337C417.856 296.643 418.478 295.796 418.91 294.849C419.341 293.903 419.571 292.877 419.587 291.837C419.587 291.051 419.233 290.23 420.451 290.109C421.367 289.988 422.092 290.973 422.559 291.578C424.244 293.833 425.971 296.191 426.602 298.938C426.847 298.843 427.108 298.793 427.371 298.791C427.91 298.787 428.442 298.912 428.922 299.157C429.402 299.402 429.815 299.76 430.127 300.199C430.815 301.314 431.081 302.638 430.878 303.931L430.875 303.936Z" fill="#514E7F"/>
<path d="M430.876 303.937C430.496 306.978 428.569 309.595 426.453 311.816C424.337 314.037 421.944 316.032 420.259 318.589C418.186 321.759 417.253 325.689 414.559 328.368C413.524 329.342 412.362 330.17 411.104 330.83C409.694 331.662 408.204 332.348 406.655 332.877C402.629 334.164 398.293 333.871 394.086 333.559C392.72 333.546 391.368 333.286 390.095 332.79C389.515 332.496 388.96 332.155 388.436 331.771C387.381 331.122 386.493 330.234 385.844 329.179C386.654 328.79 387.537 328.578 388.436 328.557C390.302 328.657 391.667 330.423 393.455 330.967C396.003 331.736 398.543 329.939 401.126 329.326C402.811 328.926 404.582 329.032 406.249 328.462C407.638 327.925 408.922 327.146 410.041 326.162C411.575 325.067 412.94 323.753 414.093 322.262C415.05 320.77 415.847 319.18 416.469 317.519C417.832 314.337 419.437 311.264 421.269 308.327C421.54 307.862 421.868 307.433 422.245 307.048C422.666 306.702 423.107 306.382 423.567 306.089C425.295 304.789 426.012 302.633 426.616 300.526C426.78 299.886 427.008 299.264 427.298 298.669C427.837 298.665 428.369 298.79 428.849 299.035C429.329 299.28 429.742 299.638 430.054 300.077C430.797 301.217 431.09 302.593 430.876 303.937Z" fill="#464353"/>
<path d="M483.295 188.203V177.476C483.293 169.578 480.154 162.004 474.568 156.42C468.982 150.835 461.407 147.698 453.509 147.698H29.786C21.8876 147.698 14.3127 150.835 8.72694 156.42C3.14122 162.004 0.00212136 169.578 0 177.476V197.259L483.295 188.203Z" fill="#33323D"/>
<path opacity="0.1" d="M419.716 292.586C437.574 290.362 448.183 257.509 443.412 219.206C438.642 180.904 420.297 151.658 402.439 153.882C384.581 156.106 373.971 188.959 378.742 227.262C383.513 265.564 401.857 294.81 419.716 292.586Z" fill="black"/>
<path d="M494.736 202.526V500.564C494.734 507.4 492.017 513.954 487.183 518.786C482.349 523.619 475.793 526.333 468.958 526.333H25.787C18.954 526.331 12.4016 523.615 7.57074 518.783C2.73984 513.951 0.0260006 507.397 0.026001 500.564V172.472C12.726 177.18 12.726 177.18 25.787 176.791H468.955C475.785 176.791 482.336 179.5 487.17 184.325C492.003 189.15 494.725 195.697 494.736 202.526Z" fill="#AC243D"/>
<path d="M494.733 310.173V405.502H402.298C389.658 405.502 377.536 400.481 368.599 391.544C359.661 382.606 354.64 370.484 354.64 357.844C354.64 345.205 359.661 333.083 368.599 324.145C377.536 315.207 389.658 310.186 402.298 310.186L494.733 310.173Z" fill="#33323D"/>
<path d="M407.992 376.433C418.255 376.433 426.574 368.114 426.574 357.851C426.574 347.589 418.255 339.269 407.992 339.269C397.729 339.269 389.41 347.589 389.41 357.851C389.41 368.114 397.729 376.433 407.992 376.433Z" fill="#F22F52"/>
<path d="M370.672 35.8935C375.876 31.8708 382.464 30.0766 388.99 30.9044C395.312 31.7063 401.075 34.9056 405.098 39.8276L405.482 40.3096L486.298 144.595C490.32 149.8 492.114 156.387 491.287 162.912C490.459 169.437 487.078 175.367 481.885 179.403L267.249 345.732C262.044 349.755 255.457 351.55 248.931 350.722C242.405 349.895 236.474 346.513 232.439 341.318L232.44 341.318L151.621 237.033C147.598 231.829 145.804 225.242 146.632 218.716C147.46 212.19 150.842 206.259 156.037 202.223L156.036 202.223L370.672 35.8935Z" fill="#AC243D" stroke="#3F3D56"/>
<path d="M416.784 60.0285C422.99 57.8475 429.808 58.2169 435.742 61.0556C441.49 63.8057 445.954 68.6558 448.225 74.5934L448.437 75.1717L492.341 199.587C494.522 205.792 494.153 212.61 491.314 218.543C488.476 224.476 483.401 229.042 477.202 231.239L221.137 321.598C214.931 323.779 208.113 323.41 202.179 320.572C196.245 317.733 191.679 312.657 189.483 306.457L189.484 306.457L145.577 182.041C143.396 175.836 143.765 169.019 146.604 163.085C149.442 157.151 154.519 152.585 160.72 150.388L160.719 150.387L416.784 60.0285Z" fill="#F22F52" stroke="#3F3D56"/>
<rect x="171.397" y="188.131" width="40" height="40" transform="rotate(-19.309 171.397 188.131)" fill="white"/>
<rect x="228.022" y="168.292" width="40" height="40" transform="rotate(-19.309 228.022 168.292)" fill="white"/>
<rect x="284.647" y="148.452" width="40" height="40" transform="rotate(-19.309 284.647 148.452)" fill="white"/>
<rect x="341.272" y="128.612" width="40" height="40" transform="rotate(-19.309 341.272 128.612)" fill="white"/>
<rect x="397.896" y="108.772" width="40" height="40" transform="rotate(-19.309 397.896 108.772)" fill="white"/>
<rect x="191.567" y="245.7" width="40" height="40" transform="rotate(-19.309 191.567 245.7)" fill="white"/>
<rect x="248.192" y="225.86" width="40" height="40" transform="rotate(-19.309 248.192 225.86)" fill="white"/>
<rect x="304.817" y="206.02" width="40" height="40" transform="rotate(-19.309 304.817 206.02)" fill="white"/>
<rect x="361.442" y="186.18" width="40" height="40" transform="rotate(-19.309 361.442 186.18)" fill="white"/>
<rect x="418.067" y="166.341" width="40" height="40" transform="rotate(-19.309 418.067 166.341)" fill="white"/>
<path opacity="0.096" d="M493.243 200.146L493.477 200.803C495.621 206.845 495.277 213.492 492.521 219.28C489.765 225.069 484.823 229.526 478.781 231.67L221.612 322.988C215.572 325.132 208.926 324.79 203.138 322.035C197.35 319.28 192.893 314.339 190.747 308.299L190.514 307.641L493.243 200.146Z" fill="#F2F2F2"/>
<path d="M449.893 77.8512L145.876 184.365L146.383 185.813L450.4 79.2991L449.893 77.8512Z" fill="#3F3D56"/>
<path d="M314.668 162.523C315.353 161.765 315.864 160.866 316.164 159.889C316.464 158.912 316.547 157.882 316.406 156.87C316.265 155.858 315.903 154.889 315.347 154.032C314.791 153.174 314.054 152.449 313.187 151.908L318.718 127.692L306.631 132.22L303.231 154.523C302.42 156.039 302.192 157.8 302.591 159.472C302.99 161.145 303.989 162.613 305.398 163.599C306.807 164.585 308.529 165.02 310.237 164.822C311.945 164.624 313.521 163.806 314.667 162.524L314.668 162.523Z" fill="#ED9DA0"/>
<path d="M300.531 55.3597L306.329 56.286C306.329 56.286 333.115 100.491 328.048 109.627C322.982 118.763 318.053 148.181 318.053 148.181C318.053 148.181 307.618 146.857 303.318 141.89L308.112 107.075L298.662 78.7583L300.531 55.3597Z" fill="#3F3D56"/>
</svg>
