<svg width="66" height="62" viewBox="0 0 66 62" fill="none" xmlns="http://www.w3.org/2000/svg">
<path d="M58.8261 61.305L7.18938 61.3224C5.928 61.3275 4.68765 60.9993 3.59386 60.371C2.50007 59.7427 1.59167 58.8366 0.960581 57.7444C0.329495 56.6523 -0.00187439 55.4128 7.97512e-06 54.1514C0.00189034 52.89 0.336959 51.6515 0.971301 50.5612L26.7732 3.59013C27.4027 2.49903 28.3082 1.59284 29.3989 0.962643C30.4896 0.332445 31.7269 0.000441579 32.9866 4.40187e-07C34.2462 -0.000440699 35.4838 0.330696 36.5749 0.96013C37.666 1.58956 38.5722 2.49512 39.2024 3.58578L65.0407 50.5439C65.6696 51.6347 66.0004 52.8717 66 54.1308C65.9996 55.3898 65.6678 56.6266 65.0382 57.7169C64.4085 58.8072 63.5031 59.7126 62.4128 60.3423C61.3225 60.9719 60.0857 61.3036 58.8266 61.3041L58.8261 61.305ZM0.648845 54.1479C0.648845 55.2695 6.34668 52.8525 6.93692 53.8742C8.11775 55.9176 4.82894 60.6754 7.18904 60.6745C7.18904 60.6745 63.2987 59.4348 64.4782 57.3906C65.0574 56.4002 65.3625 55.2734 65.3621 54.1261C65.3616 52.9787 65.0557 51.8522 64.4757 50.8622L38.6379 3.90406C38.0695 2.90877 37.2465 2.08265 36.2534 1.51047C35.2602 0.938298 34.1327 0.640676 32.9866 0.648148C30.6275 0.648148 0.648844 53.027 0.64867 54.1489L0.648845 54.1479Z" fill="#3F3D56"/>
<path d="M34.3275 55.2425C44.256 55.2425 52.3046 47.1939 52.3046 37.2654C52.3046 27.3369 44.256 19.2883 34.3275 19.2883C24.399 19.2883 16.3503 27.3369 16.3503 37.2654C16.3503 47.1939 24.399 55.2425 34.3275 55.2425Z" fill="#F22E52"/>
<path d="M32.905 41.8809L32.7165 25.9897H35.9233L35.7189 41.8809H32.905ZM34.3355 48.5416C34.0562 48.5462 33.7788 48.4934 33.5207 48.3866C33.2625 48.2798 33.0289 48.1213 32.8343 47.9207C32.6376 47.725 32.4815 47.4923 32.375 47.236C32.2685 46.9797 32.2136 46.7049 32.2136 46.4274C32.2136 46.1498 32.2685 45.875 32.375 45.6188C32.4815 45.3625 32.6376 45.1298 32.8343 44.934C33.0289 44.7335 33.2625 44.5749 33.5207 44.4681C33.7788 44.3613 34.0562 44.3086 34.3355 44.3131C34.6138 44.3081 34.8901 44.3607 35.1471 44.4676C35.4041 44.5744 35.6362 44.7332 35.8289 44.934C36.0274 45.1297 36.1841 45.3636 36.2895 45.6217C36.3949 45.8797 36.4467 46.1565 36.442 46.4352C36.4457 46.7115 36.3933 46.9856 36.2879 47.241C36.1825 47.4964 36.0264 47.7277 35.8289 47.9209C35.6362 48.1217 35.4041 48.2805 35.1471 48.3874C34.8901 48.4942 34.6138 48.5468 34.3355 48.5418V48.5416Z" fill="white"/>
</svg>
