<svg width="650" height="728" viewBox="0 0 650 728" fill="none" xmlns="http://www.w3.org/2000/svg">
<g clip-path="url(#clip0_875_1996)">
<path d="M362.889 172.947H358.891V63.4019C358.891 46.5867 352.211 30.4602 340.321 18.57C328.43 6.67986 312.304 2.12175e-05 295.489 2.01908e-10H63.402C55.076 -2.10113e-05 46.8314 1.6399 39.1391 4.82612C31.4469 8.01234 24.4575 12.6825 18.5701 18.5699C12.6826 24.4573 8.01249 31.4466 4.82623 39.1389C1.63997 46.8311 1.83851e-05 55.0756 0 63.4017V664.376C-7.87929e-06 672.702 1.6399 680.947 4.82614 688.639C8.01238 696.331 12.6825 703.321 18.5699 709.208C24.4574 715.095 31.4467 719.766 39.139 722.952C46.8312 726.138 55.0758 727.778 63.4018 727.778H295.488C312.304 727.778 328.43 721.098 340.32 709.208C352.211 697.318 358.89 681.191 358.89 664.376V250.923H362.889V172.947Z" fill="#E6E6E6"/>
<path d="M298.047 16.495H267.752C269.145 19.9106 269.677 23.6165 269.3 27.286C268.924 30.9556 267.651 34.4763 265.593 37.538C263.536 40.5997 260.757 43.1084 257.501 44.8431C254.246 46.5777 250.613 47.4852 246.925 47.4855H113.965C110.276 47.4852 106.644 46.5778 103.389 44.8431C100.133 43.1084 97.3541 40.5997 95.2965 37.538C93.2389 34.4763 91.9659 30.9556 91.5894 27.286C91.213 23.6164 91.7448 19.9105 93.138 16.4949H64.8425C52.2851 16.4949 40.242 21.4833 31.3625 30.3627C22.4831 39.2421 17.4946 51.2852 17.4946 63.8426V663.935C17.4946 676.493 22.483 688.536 31.3625 697.415C40.2419 706.295 52.285 711.283 64.8424 711.283H298.047C304.265 711.283 310.422 710.058 316.166 707.679C321.911 705.3 327.13 701.812 331.527 697.415C335.923 693.019 339.411 687.799 341.79 682.055C344.17 676.31 345.395 670.153 345.395 663.935V63.8427C345.395 57.6249 344.17 51.468 341.79 45.7235C339.411 39.979 335.923 34.7594 331.527 30.3627C327.13 25.9661 321.91 22.4785 316.166 20.0991C310.421 17.7196 304.265 16.4949 298.047 16.495Z" fill="white"/>
<path d="M315.114 462.842C337.205 462.842 355.114 444.933 355.114 422.842C355.114 400.75 337.205 382.842 315.114 382.842C293.023 382.842 275.114 400.75 275.114 422.842C275.114 444.933 293.023 462.842 315.114 462.842Z" fill="white"/>
<path d="M345.31 535.731C345.055 535.335 344.844 534.913 344.68 534.472L339.516 520.645C338.915 519.03 338.98 517.243 339.695 515.675C340.41 514.107 341.718 512.887 343.332 512.282L458.574 469.25C460.189 468.649 461.977 468.713 463.544 469.428C465.112 470.143 466.332 471.451 466.937 473.065L472.1 486.893C472.398 487.692 472.537 488.543 472.507 489.396C472.476 490.249 472.279 491.088 471.924 491.864C471.57 492.641 471.066 493.34 470.442 493.922C469.817 494.504 469.084 494.957 468.284 495.255L353.043 538.287C351.656 538.805 350.133 538.834 348.727 538.369C347.321 537.904 346.115 536.973 345.31 535.731Z" fill="#ED9DA0"/>
<path d="M458.207 465.677L411.344 484.364C409.867 484.809 408.618 485.804 407.856 487.145C407.094 488.485 406.877 490.068 407.251 491.564L412.69 513.339C412.904 514.199 413.307 515.001 413.869 515.687C414.431 516.373 415.138 516.926 415.939 517.306C416.74 517.686 417.615 517.884 418.501 517.885C419.388 517.887 420.264 517.692 421.066 517.314L468.058 495.195C469.547 494.637 470.754 493.511 471.414 492.065C472.075 490.618 472.136 488.969 471.583 487.478L465.934 469.203C465.376 467.711 464.249 466.503 462.8 465.842C461.351 465.181 459.699 465.122 458.207 465.677Z" fill="#2F2E41"/>
<path d="M543.97 601.339C542.498 601.508 541.013 601.17 539.76 600.381C538.507 599.591 537.561 598.398 537.077 596.999L496.963 480.71C496.685 479.903 496.568 479.049 496.62 478.197C496.671 477.345 496.89 476.511 497.264 475.744C497.638 474.976 498.159 474.29 498.798 473.724C499.437 473.158 500.181 472.724 500.988 472.445L514.941 467.632C516.571 467.071 518.356 467.18 519.906 467.935C521.455 468.689 522.642 470.028 523.205 471.657L563.319 587.947C563.879 589.577 563.77 591.362 563.015 592.911C562.261 594.461 560.923 595.647 559.294 596.211L545.342 601.024C544.897 601.178 544.437 601.283 543.97 601.339Z" fill="#ED9DA0"/>
<path d="M526.195 469.667L541.591 517.712C542.187 519.134 542.214 520.731 541.664 522.172C541.115 523.613 540.032 524.787 538.64 525.45L518.38 535.108C517.579 535.489 516.704 535.688 515.818 535.691C514.931 535.694 514.055 535.501 513.252 535.124C512.449 534.748 511.74 534.199 511.175 533.516C510.61 532.833 510.203 532.033 509.984 531.174L497.154 480.846C496.637 479.342 496.738 477.694 497.434 476.265C498.13 474.835 499.363 473.739 500.865 473.217L518.559 465.948C520.065 465.431 521.715 465.531 523.146 466.228C524.578 466.926 525.674 468.162 526.195 469.667Z" fill="#2F2E41"/>
<path d="M479.58 726.003H464.82C463.097 726.001 461.445 725.316 460.226 724.097C459.008 722.879 458.322 721.226 458.32 719.503V596.489C458.322 594.765 459.008 593.113 460.226 591.895C461.445 590.676 463.097 589.991 464.82 589.989H479.58C481.303 589.991 482.955 590.676 484.174 591.895C485.392 593.113 486.078 594.765 486.08 596.489V719.503C486.078 721.226 485.392 722.879 484.174 724.097C482.955 725.316 481.303 726.001 479.58 726.003Z" fill="#2F2E41"/>
<path d="M508.772 726.003H494.012C492.289 726.001 490.637 725.316 489.418 724.097C488.2 722.879 487.514 721.226 487.512 719.503V596.489C487.514 594.765 488.2 593.113 489.418 591.895C490.637 590.676 492.289 589.991 494.012 589.989H508.772C510.495 589.991 512.147 590.676 513.366 591.895C514.585 593.113 515.27 594.765 515.272 596.489V719.503C515.27 721.226 514.585 722.879 513.366 724.097C512.147 725.316 510.495 726.001 508.772 726.003Z" fill="#2F2E41"/>
<path d="M520.936 610.951H453.873C452.017 610.948 450.238 610.21 448.926 608.898C447.613 607.586 446.875 605.806 446.873 603.951V495.006C446.873 484.257 451.143 473.947 458.744 466.346C466.345 458.745 476.655 454.475 487.404 454.475C498.154 454.475 508.463 458.745 516.064 466.346C523.665 473.947 527.936 484.257 527.936 495.006V603.951C527.933 605.806 527.195 607.586 525.883 608.898C524.571 610.21 522.791 610.948 520.936 610.951Z" fill="#CCCCCC"/>
<path d="M531.03 637.6H497.03V445.445L497.662 445.618C507.237 448.246 515.686 453.943 521.714 461.834C527.741 469.725 531.014 479.375 531.03 489.305V637.6Z" fill="#2F2E41"/>
<path d="M475.015 637.6H441.015V489.305C441.032 479.375 444.305 469.725 450.332 461.834C456.359 453.943 464.808 448.246 474.384 445.618L475.015 445.445V637.6Z" fill="#2F2E41"/>
<path d="M486.897 431.94C516.455 431.94 540.416 407.978 540.416 378.421C540.416 348.863 516.455 324.901 486.897 324.901C457.339 324.901 433.378 348.863 433.378 378.421C433.378 407.978 457.339 431.94 486.897 431.94Z" fill="#ED9DA0"/>
<path d="M547.404 366.099C547.404 366.099 550.404 283.099 511.404 310.099C511.404 310.099 488.904 234.599 433.904 347.599L417.904 363.599C417.904 363.599 489.904 353.599 556.904 384.599L547.404 366.099Z" fill="#2F2E41"/>
<path d="M487.713 404.925C484.407 404.834 480.293 404.719 477.123 402.403C476.18 401.686 475.404 400.77 474.851 399.721C474.298 398.672 473.982 397.515 473.923 396.331C473.866 395.489 474.004 394.645 474.327 393.866C474.65 393.086 475.148 392.392 475.784 391.837C477.439 390.438 479.857 390.11 482.462 390.876L479.763 371.15L481.744 370.879L484.917 394.069L483.263 393.31C481.344 392.43 478.711 391.982 477.075 393.365C476.673 393.726 476.36 394.176 476.16 394.678C475.96 395.18 475.879 395.721 475.922 396.26C475.97 397.142 476.208 398.002 476.619 398.784C477.03 399.565 477.604 400.249 478.303 400.788C480.77 402.59 484.049 402.822 487.769 402.926L487.713 404.925Z" fill="#2F2E41"/>
<path d="M469.964 372.852H459.192V374.852H469.964V372.852Z" fill="#2F2E41"/>
<path d="M503.964 372.852H493.192V374.852H503.964V372.852Z" fill="#2F2E41"/>
<path d="M367.571 540.833C366.127 541.503 364.477 541.571 362.983 541.024C361.489 540.477 360.273 539.359 359.603 537.915L325.092 463.531C324.423 462.088 324.354 460.438 324.901 458.943C325.448 457.449 326.567 456.234 328.01 455.564C329.453 454.894 331.104 454.826 332.598 455.373C334.092 455.92 335.308 457.038 335.978 458.481L370.489 532.865C371.158 534.308 371.227 535.959 370.68 537.453C370.133 538.947 369.014 540.163 367.571 540.833Z" fill="#3F3D56"/>
<path d="M333.06 466.449C324.448 470.444 314.845 471.796 305.465 470.334C296.085 468.872 287.349 464.661 280.362 458.234C273.375 451.806 268.451 443.452 266.212 434.226C263.973 425 264.521 415.318 267.785 406.403C271.049 397.488 276.884 389.742 284.55 384.143C292.217 378.544 301.372 375.344 310.857 374.949C320.343 374.553 329.732 376.979 337.839 381.919C345.945 386.86 352.405 394.094 356.4 402.705C361.743 414.255 362.286 427.453 357.911 439.403C353.535 451.353 344.598 461.08 333.06 466.449ZM297.707 390.251C291.248 393.247 285.823 398.092 282.118 404.172C278.412 410.252 276.593 417.294 276.89 424.408C277.187 431.522 279.586 438.388 283.785 444.138C287.984 449.888 293.794 454.264 300.48 456.712C307.166 459.16 314.428 459.571 321.347 457.892C328.267 456.213 334.533 452.52 339.353 447.279C344.174 442.039 347.332 435.487 348.429 428.452C349.525 421.417 348.511 414.215 345.515 407.756C341.488 399.102 334.193 392.399 325.231 389.118C316.268 385.836 306.37 386.243 297.707 390.251Z" fill="#3F3D56"/>
<path d="M182.981 463.071C193.755 463.071 202.489 454.337 202.489 443.563C202.489 432.789 193.755 424.055 182.981 424.055C172.207 424.055 163.473 432.789 163.473 443.563C163.473 454.337 172.207 463.071 182.981 463.071Z" fill="#F22F52"/>
<path d="M180.891 240.001C150.402 240.217 125.439 264.993 125.006 295.479C125.002 295.761 125 297.74 125 300.328C125 304.124 126.508 307.764 129.192 310.448C131.875 313.131 135.515 314.639 139.31 314.64C141.192 314.639 143.055 314.268 144.793 313.548C146.531 312.827 148.11 311.771 149.439 310.44C150.769 309.109 151.823 307.529 152.542 305.79C153.261 304.051 153.63 302.188 153.628 300.307C153.627 298.546 153.626 297.327 153.626 297.252C153.625 292.541 154.85 287.91 157.182 283.815C159.513 279.721 162.871 276.304 166.923 273.901C170.976 271.498 175.584 270.191 180.295 270.109C185.006 270.027 189.657 271.172 193.791 273.433C197.925 275.694 201.399 278.992 203.872 283.002C206.344 287.013 207.73 291.598 207.893 296.307C208.057 301.016 206.991 305.686 204.802 309.858C202.612 314.03 199.375 317.561 195.407 320.102L195.412 320.108C195.412 320.108 175.044 333.221 168.834 351.209L168.84 351.21C167.748 354.895 167.194 358.719 167.197 362.562C167.197 364.142 167.29 377.965 167.469 389.185C167.532 393.057 169.114 396.748 171.874 399.463C174.635 402.178 178.352 403.7 182.223 403.699C184.169 403.699 186.095 403.314 187.891 402.567C189.688 401.819 191.318 400.724 192.69 399.344C194.061 397.964 195.146 396.327 195.882 394.526C196.618 392.725 196.991 390.796 196.979 388.851C196.917 378.576 196.883 366.611 196.883 365.743C196.883 354.697 207.538 343.692 216.291 336.515C226.37 328.251 233.623 316.989 236.536 304.285C237.18 301.669 237.536 298.991 237.596 296.298C237.596 288.871 236.126 281.517 233.271 274.66C230.417 267.803 226.233 261.579 220.962 256.346C215.691 251.113 209.437 246.975 202.56 244.169C195.683 241.364 188.318 239.948 180.891 240.001Z" fill="#F22F52"/>
<path d="M181.861 270.157C186.249 270.366 190.52 271.637 194.308 273.861C198.096 276.085 201.288 279.195 203.61 282.925C205.931 286.654 207.313 290.891 207.636 295.272C207.959 299.652 207.215 304.046 205.466 308.076C207.995 305.105 209.855 301.623 210.917 297.869C211.979 294.114 212.219 290.175 211.621 286.319C211.023 282.463 209.6 278.782 207.45 275.525C205.3 272.269 202.473 269.515 199.162 267.45C195.851 265.386 192.133 264.059 188.263 263.562C184.393 263.064 180.461 263.407 176.736 264.566C173.01 265.726 169.578 267.675 166.674 270.281C163.77 272.887 161.462 276.089 159.907 279.668C162.594 276.507 165.971 274.006 169.777 272.357C173.584 270.708 177.718 269.955 181.861 270.157Z" fill="#3F3D56"/>
<path d="M178.683 458.313C175.912 457.106 173.459 455.272 171.518 452.954C169.577 450.637 168.201 447.9 167.499 444.96C166.797 442.02 166.788 438.957 167.473 436.013C168.157 433.069 169.517 430.324 171.443 427.995C169.209 429.627 167.348 431.714 165.982 434.12C164.616 436.526 163.778 439.194 163.523 441.949C163.267 444.703 163.601 447.481 164.501 450.096C165.401 452.712 166.847 455.107 168.743 457.121C170.639 459.135 172.942 460.723 175.499 461.779C178.055 462.835 180.808 463.336 183.572 463.247C186.337 463.158 189.052 462.482 191.535 461.264C194.019 460.046 196.215 458.314 197.978 456.182C195.229 458.192 192 459.446 188.615 459.82C185.229 460.194 181.805 459.674 178.683 458.313Z" fill="#3F3D56"/>
</g>
<defs>
<clipPath id="clip0_875_1996">
<rect width="649.378" height="727.778" fill="white"/>
</clipPath>
</defs>
</svg>
